<svg width="32" height="46" viewBox="0 0 32 46" fill="none" xmlns="http://www.w3.org/2000/svg">
<path d="M16.654 38.2601H8.89734V29.0207C8.89734 27.0517 9.65779 25.9914 11.3612 25.7794H16.6844C17.5222 25.7103 18.365 25.824 19.1541 26.1126C19.9432 26.4012 20.6596 26.8578 21.2533 27.4505C21.847 28.0432 22.3037 28.7577 22.5916 29.5443C22.8795 30.3308 22.9916 31.1705 22.9202 32.0046C22.9202 35.9427 20.5323 38.2904 16.6844 38.2904L16.654 38.2601ZM8.88213 13.2835V10.8601C8.88213 8.73954 9.79468 7.70958 11.7719 7.58841H15.7567C19.1635 7.58841 21.2319 9.61804 21.2319 13.0412C21.2319 15.6161 19.8327 18.6454 15.9087 18.6454H8.91255L8.88213 13.2835ZM26.5856 22.5229L25.1863 21.7353L26.403 20.675C27.8327 19.4633 30.2053 16.7066 30.2053 11.9658C30.2053 4.69542 24.5475 0 15.8023 0H4.69962C3.4459 0.0428963 2.25723 0.566237 1.3816 1.46084C0.505976 2.35544 0.0110208 3.5522 0 4.80145V46H16C25.7338 46 32 40.729 32 32.5499C32 28.1574 29.9772 24.3708 26.5551 22.4774" fill="#273B7D"/>
</svg>
